M48
; DRILL file {KiCad 9.0.6} date 2025-12-18T20:45:18-0600
; FORMAT={-:-/ absolute / metric / decimal}
; #@! TF.CreationDate,2025-12-18T20:45:18-06:00
; #@! TF.GenerationSoftware,Kicad,Pcbnew,9.0.6
; #@! TF.FileFunction,Plated,1,2,PTH
FMAT,2
METRIC
; #@! TA.AperFunction,Plated,PTH,ComponentDrill
T1C0.800
; #@! TA.AperFunction,Plated,PTH,ComponentDrill
T2C0.889
; #@! TA.AperFunction,Plated,PTH,ComponentDrill
T3C1.000
; #@! TA.AperFunction,Plated,PTH,ComponentDrill
T4C1.500
%
G90
G05
T1
X106.997Y-35.317
X106.997Y-39.09
X106.997Y-42.862
X106.997Y-46.635
X106.997Y-50.408
X106.997Y-54.181
X109.537Y-35.317
X109.537Y-39.09
X109.537Y-42.862
X109.537Y-46.635
X109.537Y-50.408
X109.537Y-54.181
T2
X128.111Y-35.242
X128.111Y-37.782
X128.111Y-40.322
X128.111Y-42.862
X128.111Y-45.402
X128.111Y-47.942
X128.111Y-50.482
X143.351Y-35.242
X143.351Y-37.782
X143.351Y-40.322
X143.351Y-42.862
X143.351Y-45.402
X143.351Y-47.942
X143.351Y-50.482
T3
X141.44Y-58.217
X141.44Y-60.758
X141.44Y-63.297
X141.44Y-65.837
X145.062Y-58.577
X145.062Y-61.077
X145.062Y-63.577
X159.562Y-58.577
X159.562Y-63.577
T4
X109.537Y-76.2
X109.537Y-95.25
X115.887Y-73.66
X115.887Y-92.71
X128.588Y-76.2
X128.588Y-95.25
X134.938Y-73.66
X134.938Y-92.71
X147.637Y-76.2
X147.637Y-95.25
X153.987Y-73.66
X153.987Y-92.71
T4
G00X151.912Y-55.477
M15
G01X153.212Y-55.477
M16
G05
G00X151.912Y-66.677
M15
G01X153.212Y-66.677
M16
G05
M30
